<svg width="16" height="16" viewBox="0 0 16 16" fill="none" xmlns="http://www.w3.org/2000/svg">
  <defs>
    <linearGradient id="gradient" x1="0%" y1="0%" x2="100%" y2="100%">
      <stop offset="0%" style="stop-color:#3B82F6;stop-opacity:1" />
      <stop offset="100%" style="stop-color:#06B6D4;stop-opacity:1" />
    </linearGradient>
  </defs>
  
  <!-- Water waves -->
  <path d="M0 12 C2 11, 4 13, 6 12 C8 11, 10 13, 12 12 C14 11, 16 13, 16 12 L16 16 L0 16 Z" fill="#0EA5E9" opacity="0.4"/>
  
  <!-- Boat hull -->
  <path d="M4 10 L12 10 C12 11, 11 12, 10 12 L6 12 C5 12, 4 11, 4 10 Z" fill="url(#gradient)"/>
  
  <!-- Mast -->
  <line x1="8" y1="10" x2="8" y2="3" stroke="url(#gradient)" stroke-width="1"/>
  
  <!-- Main sail -->
  <path d="M8 3 L13 6 L8 9 Z" fill="url(#gradient)" opacity="0.9"/>
  
  <!-- Jib sail -->
  <path d="M8 4 L5 7 L8 8 Z" fill="url(#gradient)" opacity="0.7"/>
  
  <!-- Flag -->
  <path d="M8 3 L11 4 L8 5 Z" fill="#F59E0B"/>
</svg>
