<svg width="32" height="32" viewBox="0 0 32 32" fill="none" xmlns="http://www.w3.org/2000/svg">
  <defs>
    <linearGradient id="gradient" x1="0%" y1="0%" x2="100%" y2="100%">
      <stop offset="0%" style="stop-color:#3B82F6;stop-opacity:1" />
      <stop offset="100%" style="stop-color:#06B6D4;stop-opacity:1" />
    </linearGradient>
  </defs>
  
  <!-- Water waves -->
  <path d="M0 24 C4 22, 8 26, 12 24 C16 22, 20 26, 24 24 C28 22, 32 26, 32 24 L32 32 L0 32 Z" fill="#0EA5E9" opacity="0.3"/>
  
  <!-- Boat hull -->
  <path d="M8 20 L24 20 C24 22, 22 24, 20 24 L12 24 C10 24, 8 22, 8 20 Z" fill="url(#gradient)"/>
  
  <!-- Mast -->
  <line x1="16" y1="20" x2="16" y2="6" stroke="url(#gradient)" stroke-width="2"/>
  
  <!-- Main sail -->
  <path d="M16 6 L26 12 L16 18 Z" fill="url(#gradient)" opacity="0.9"/>
  
  <!-- Jib sail -->
  <path d="M16 8 L10 14 L16 16 Z" fill="url(#gradient)" opacity="0.7"/>
  
  <!-- Flag -->
  <path d="M16 6 L22 8 L16 10 Z" fill="#F59E0B"/>
</svg>
